# xmcd
#
# Track frame offsets: 
#        150
#        16661
#        33114
#        50104
#        75294
#
# Disc length: 1219 seconds
#
# Revision: 0
# Processed by: cddbd v1.5.2PL0 Copyright (c) Steve Scherf et al.
# Submitted via: ExactAudioCopy v0.95b4
#
DISCID=2904c105
DTITLE=Balia Caliente - Hey Amor
DYEAR=1900
DGENRE=
TTITLE0=Radio Version
TTITLE1=Alternative Radio Mix
TTITLE2=Original Mix
TTITLE3=Extended Version
TTITLE4=Vamos
EXTD=
EXTT0=
EXTT1=
EXTT2=
EXTT3=
EXTT4=
PLAYORDER=
